<?xml version="1.0" standalone="no"?>
<!DOCTYPE svg PUBLIC "-//W3C//DTD SVG 20010904//EN"
 "http://www.w3.org/TR/2001/REC-SVG-20010904/DTD/svg10.dtd">
<svg version="1.0" xmlns="http://www.w3.org/2000/svg"
 width="500.000000pt" height="500.000000pt" viewBox="0 0 500.000000 500.000000"
 preserveAspectRatio="xMidYMid meet">
<metadata>
Created by potrace 1.16, written by Peter Selinger 2001-2019
</metadata>
<g transform="translate(0.000000,500.000000) scale(0.100000,-0.100000)"
fill="#000000" stroke="none">
<path d="M930 3130 c0 -20 6 -20 886 -20 838 0 885 1 882 18 -3 16 -54 17
-886 20 -877 2 -882 2 -882 -18z"/>
<path d="M2328 2985 c-52 -29 -49 -103 3 -131 61 -31 132 5 132 67 0 60 -77
96 -135 64z"/>
<path d="M2884 2990 c-26 -10 -54 -48 -54 -72 0 -9 11 -29 24 -45 19 -22 32
-28 66 -28 34 0 47 6 66 28 39 46 27 95 -30 117 -32 12 -43 12 -72 0z"/>
<path d="M960 2650 l0 -270 215 0 215 0 0 60 0 60 -140 0 -140 0 0 50 0 50
120 0 120 0 0 55 0 55 -120 0 -120 0 0 45 0 45 135 0 135 0 0 60 0 60 -210 0
-210 0 0 -270z"/>
<path d="M1410 2590 l0 -210 75 0 75 0 0 125 c0 120 1 127 25 150 30 31 75 33
101 4 16 -18 19 -40 22 -150 l4 -129 69 0 69 0 0 148 c0 134 -2 152 -22 192
-14 27 -36 50 -58 62 -47 25 -130 24 -180 -2 l-40 -20 0 20 c0 18 -6 20 -70
20 l-70 0 0 -210z"/>
<path d="M1840 2789 c0 -7 37 -102 81 -211 l82 -198 76 0 76 0 70 172 70 172
3 -172 2 -172 75 0 75 0 0 210 0 211 -132 -3 -131 -3 -53 -125 -53 -125 -17
40 c-9 22 -31 78 -49 125 l-32 85 -72 3 c-51 2 -71 -1 -71 -9z"/>
<path d="M2562 2788 c-78 -26 -117 -102 -89 -171 19 -44 54 -63 145 -78 87
-14 101 -22 83 -43 -17 -20 -101 -21 -156 -1 -22 8 -43 15 -46 15 -4 0 -14
-21 -24 -46 -15 -39 -15 -48 -4 -55 30 -19 98 -32 169 -33 95 -1 161 28 190
83 l19 36 1 -57 0 -58 70 0 70 0 0 210 0 210 -70 0 -70 0 0 -137 c-1 -127 -2
-135 -15 -106 -17 39 -53 59 -147 78 -82 18 -97 27 -78 50 16 19 81 19 135 0
21 -8 40 -13 41 -12 2 1 12 23 22 48 l20 47 -26 12 c-35 17 -198 22 -240 8z"/>
<path d="M3130 2779 c-56 -25 -77 -44 -100 -89 -39 -78 -33 -162 17 -228 53
-70 151 -102 248 -82 30 6 57 15 59 18 2 4 -4 19 -15 32 l-19 25 -29 -33 c-32
-37 -41 -30 -41 34 0 28 -4 34 -21 34 -11 0 -34 14 -51 30 -27 28 -30 36 -25
76 2 25 12 53 22 64 42 46 130 27 142 -31 4 -22 18 -38 47 -56 23 -14 52 -32
66 -41 l25 -15 -43 -15 -42 -14 17 -29 18 -30 22 28 c54 66 58 181 9 252 -59
85 -201 118 -306 70z"/>
<path d="M3487 2793 c-4 -3 -7 -98 -7 -210 l0 -203 75 0 75 0 0 115 c0 151 16
185 86 185 13 0 33 -9 44 -20 18 -18 20 -33 20 -150 l0 -130 76 0 76 0 -4 153
c-3 166 -12 197 -70 240 -52 39 -142 35 -230 -11 -5 -2 -8 6 -8 17 0 19 -6 21
-63 21 -35 0 -67 -3 -70 -7z"/>
<path d="M2200 2271 c0 -18 28 -19 874 -26 481 -4 879 -4 885 -1 6 4 11 13 11
20 0 10 -133 14 -652 19 -359 4 -758 7 -885 7 -221 0 -233 -1 -233 -19z"/>
</g>
</svg>
